<svg class="diagram-root" style="background: #f5f6f6" xmlns="http://www.w3.org/2000/svg" xmlns:xlink="http://www.w3.org/1999/xlink"><style>.diagram-root { font-family: "Helvetica Neue", sans-serif; font-size: 12px; } .t { overflow: visible; } .t-bg { y: 40; fill: #fff;   } .th { fill: #005aa0;   } .tht { fill: #fff; font-size: 14px;  } .tf { fill: #323c46; overflow: visible; } .tf.pk { fill: #005aa0; font-weight: bold; } .tf.fk { font-weight: bold; } .ty { fill: #adb1b5; font-weight: normal; text-anchor: end; } .r { fill: transparent; stroke: #c3c3c3; stroke-width: 1; } .l { stroke: 1; } .i { fill: #c2c7ce; stroke: #c2c7ce; } .i.ix { fill: #afb3b6; stroke: #000; } .fa { fill: transparent; overflow: visible; } .fa .bg.hover { fill: #f7f7f7; } .c { cy: 12; r: 4; stroke: #d2d2dc; fill: #d2d2dc; } .hr { fill: transparent; stroke: #323c46; stroke-opacity: 0.035; stroke-width: 13; } .dc { stroke: #fa5a3c; fill: #fa5a3c; } .x { stroke: white; stroke-width: 1; } .hl .th { fill: #1b9bff; } .hl .tht {  } .fhl .bg { fill: #e7f4ff; } .fhls .bg {  } .r.hl { stroke: #1b9bff; } .dim { opacity: 0.25; }</style><g class="drawing-wrapper" transform="translate(-138, -137) scale(1,1)"><g class="rs"><path d="M 368.74 666 m -1, 0 a 1,1 0 1,0 2,0 a 1,1 0 1,0 -2,0 M 368.74 666 m -0.5, 0 a 0.5,0.5 0 1,0 1,0 a 0.5,0.5 0 1,0 -1,0  M368.74 666 L368.74 666 380.74 666 M374.74 672 L374.74 672 374.74 660 M380.74 666 C 872.34 666, 706.74 597, 656.74 597 M 644.74 597 m -1, 0 a 1,1 0 1,0 2,0 a 1,1 0 1,0 -2,0 M 644.74 597 m -0.5, 0 a 0.5,0.5 0 1,0 1,0 a 0.5,0.5 0 1,0 -1,0  M644.74 597 L644.74 597 656.74 597 M 644.74 603 m -1, 0 a 1,1 0 1,0 2,0 a 1,1 0 1,0 -2,0 M 644.74 603 m -0.5, 0 a 0.5,0.5 0 1,0 1,0 a 0.5,0.5 0 1,0 -1,0  M644.74 603 L644.74 603 651.74 597 644.74 591 M 644.74 591 m -1, 0 a 1,1 0 1,0 2,0 a 1,1 0 1,0 -2,0 M 644.74 591 m -0.5, 0 a 0.5,0.5 0 1,0 1,0 a 0.5,0.5 0 1,0 -1,0 " id="h597083352" class="r"></path><path d="M 206 459 m -1, 0 a 1,1 0 1,0 2,0 a 1,1 0 1,0 -2,0 M 206 459 m -0.5, 0 a 0.5,0.5 0 1,0 1,0 a 0.5,0.5 0 1,0 -1,0  M206 459 L206 459 194 459 M200 465 L200 465 200 453 M194 459 C 144 459, -3.6000000000000227 572, 440 572 M 452 572 m -1, 0 a 1,1 0 1,0 2,0 a 1,1 0 1,0 -2,0 M 452 572 m -0.5, 0 a 0.5,0.5 0 1,0 1,0 a 0.5,0.5 0 1,0 -1,0  M452 572 L452 572 440 572 M 452 578 m -1, 0 a 1,1 0 1,0 2,0 a 1,1 0 1,0 -2,0 M 452 578 m -0.5, 0 a 0.5,0.5 0 1,0 1,0 a 0.5,0.5 0 1,0 -1,0  M452 578 L452 578 445 572 452 566 M 452 566 m -1, 0 a 1,1 0 1,0 2,0 a 1,1 0 1,0 -2,0 M 452 566 m -0.5, 0 a 0.5,0.5 0 1,0 1,0 a 0.5,0.5 0 1,0 -1,0 " id="h2289510480" class="r"></path><path d="M 734 224 m -1, 0 a 1,1 0 1,0 2,0 a 1,1 0 1,0 -2,0 M 734 224 m -0.5, 0 a 0.5,0.5 0 1,0 1,0 a 0.5,0.5 0 1,0 -1,0  M734 224 L734 224 722 224 M728 230 L728 230 728 218 M722 224 Q 705.69 224, 689.37 260.5 T 656.74 297 M 644.74 297 m -1, 0 a 1,1 0 1,0 2,0 a 1,1 0 1,0 -2,0 M 644.74 297 m -0.5, 0 a 0.5,0.5 0 1,0 1,0 a 0.5,0.5 0 1,0 -1,0  M644.74 297 L644.74 297 656.74 297 M 644.74 303 m -1, 0 a 1,1 0 1,0 2,0 a 1,1 0 1,0 -2,0 M 644.74 303 m -0.5, 0 a 0.5,0.5 0 1,0 1,0 a 0.5,0.5 0 1,0 -1,0  M644.74 303 L644.74 303 651.74 297 644.74 291 M 644.74 291 m -1, 0 a 1,1 0 1,0 2,0 a 1,1 0 1,0 -2,0 M 644.74 291 m -0.5, 0 a 0.5,0.5 0 1,0 1,0 a 0.5,0.5 0 1,0 -1,0 " id="h1136315302" class="r"></path></g><g class="hrs"></g><g class="ts"><svg width="208.74" height="100" x="160" y="609" id="h2584823334" class="t"><rect height="40" width="208.74" class="th"></rect><text x="13" y="25" class="tht">Subcategory</text><rect height="60" width="208.74" class="t-bg"></rect><text x="13" y="61" class="tf pk">subcategory_id<tspan x="195.74" class="ty">varchar(10)</tspan></text><path d="M7,14A2,2 0 0,1 5,12A2,2 0 0,1 7,10A2,2 0 0,1 9,12A2,2 0 0,1 7,14M12.65,10C11.83,7.67 9.61,6 7, 6A6, 6 0 0, 0 1, 12A6, 6 0 0, 0 7, 18C9.61, 18 11.83, 16.33 12.65, 14H17V18H21V14H23V10H12.65Z" class="i pk" transform="translate(114.38648437500001, 48) scale(0.65)"></path><text x="13" y="86" class="tf">subcategory<tspan x="195.74" class="ty">varchar(50)</tspan></text></svg><svg width="189.39" height="100" x="206" y="402" id="h1903237708" class="t"><rect height="40" width="189.39" class="th"></rect><text x="13" y="25" class="tht">Category</text><rect height="60" width="189.39" class="t-bg"></rect><text x="13" y="61" class="tf pk">category_id<tspan x="176.39" class="ty">varchar(10)</tspan></text><path d="M7,14A2,2 0 0,1 5,12A2,2 0 0,1 7,10A2,2 0 0,1 9,12A2,2 0 0,1 7,14M12.65,10C11.83,7.67 9.61,6 7, 6A6, 6 0 0, 0 1, 12A6, 6 0 0, 0 7, 18C9.61, 18 11.83, 16.33 12.65, 14H17V18H21V14H23V10H12.65Z" class="i pk" transform="translate(95.03648437499999, 48) scale(0.65)"></path><text x="13" y="86" class="tf">category<tspan x="176.39" class="ty">varchar(50)</tspan></text></svg><svg width="163.38" height="150" x="734" y="167" id="h1934035236" class="t"><rect height="40" width="163.38" class="th"></rect><text x="13" y="25" class="tht">Contacts</text><rect height="110" width="163.38" class="t-bg"></rect><text x="13" y="61" class="tf pk">contact_id<tspan x="150.38" class="ty">int</tspan></text><path d="M7,14A2,2 0 0,1 5,12A2,2 0 0,1 7,10A2,2 0 0,1 9,12A2,2 0 0,1 7,14M12.65,10C11.83,7.67 9.61,6 7, 6A6, 6 0 0, 0 1, 12A6, 6 0 0, 0 7, 18C9.61, 18 11.83, 16.33 12.65, 14H17V18H21V14H23V10H12.65Z" class="i pk" transform="translate(117.706171875, 48) scale(0.65)"></path><text x="13" y="86" class="tf">first_name<tspan x="150.38" class="ty">varchar(50)</tspan></text><text x="13" y="111" class="tf">last_name<tspan x="150.38" class="ty">varchar(50)</tspan></text><text x="13" y="136" class="tf">email<tspan x="150.38" class="ty">varchar(50)</tspan></text></svg><svg width="192.74" height="400" x="452" y="215" id="h3542347218" class="t"><rect height="40" width="192.74" class="th"></rect><text x="13" y="25" class="tht">Campaign</text><rect height="360" width="192.74" class="t-bg"></rect><text x="13" y="61" class="tf pk">cf_id<tspan x="179.74" class="ty">int</tspan></text><path d="M7,14A2,2 0 0,1 5,12A2,2 0 0,1 7,10A2,2 0 0,1 9,12A2,2 0 0,1 7,14M12.65,10C11.83,7.67 9.61,6 7, 6A6, 6 0 0, 0 1, 12A6, 6 0 0, 0 7, 18C9.61, 18 11.83, 16.33 12.65, 14H17V18H21V14H23V10H12.65Z" class="i pk" transform="translate(147.066171875, 48) scale(0.65)"></path><text x="13" y="86" class="tf fk">contact_id<tspan x="179.74" class="ty">int</tspan></text><text x="13" y="111" class="tf">company_name<tspan x="179.74" class="ty">varchar(50)</tspan></text><text x="13" y="136" class="tf">description<tspan x="179.74" class="ty">varchar(50)</tspan></text><text x="13" y="161" class="tf">goal<tspan x="179.74" class="ty">int</tspan></text><text x="13" y="186" class="tf">pledged<tspan x="179.74" class="ty">int</tspan></text><text x="13" y="211" class="tf">outcome<tspan x="179.74" class="ty">varchar(50)</tspan></text><text x="13" y="236" class="tf">backers_count<tspan x="179.74" class="ty">int</tspan></text><text x="13" y="261" class="tf">country<tspan x="179.74" class="ty">varchar(50)</tspan></text><text x="13" y="286" class="tf">currency<tspan x="179.74" class="ty">varchar(50)</tspan></text><text x="13" y="311" class="tf">launch_date<tspan x="179.74" class="ty">date</tspan></text><text x="13" y="336" class="tf">end_date<tspan x="179.74" class="ty">date</tspan></text><text x="13" y="361" class="tf fk">category_id<tspan x="179.74" class="ty">varchar(50)</tspan></text><text x="13" y="386" class="tf fk">subcategory_id<tspan x="179.74" class="ty">varchar(50)</tspan></text></svg></g></g><text class="qdbd-link" x="10" y="20">www.quickdatabasediagrams.com</text></svg>